<svg width="27" height="21" viewBox="0 0 27 21" fill="none" xmlns="http://www.w3.org/2000/svg">
<path d="M8.75 0C7.7835 0 7 0.783502 7 1.75V1.75C7 2.7165 7.7835 3.5 8.75 3.5H25.25C26.2165 3.5 27 2.7165 27 1.75V1.75C27 0.783502 26.2165 0 25.25 0H8.75ZM7 19.25C7 20.2165 7.7835 21 8.75 21H25.25C26.2165 21 27 20.2165 27 19.25V19.25C27 18.2835 26.2165 17.5 25.25 17.5H8.75C7.7835 17.5 7 18.2835 7 19.25V19.25ZM7 10.5C7 11.4665 7.7835 12.25 8.75 12.25H25.25C26.2165 12.25 27 11.4665 27 10.5V10.5C27 9.5335 26.2165 8.75 25.25 8.75H8.75C7.7835 8.75 7 9.5335 7 10.5V10.5Z" fill="black"/>
<path d="M1.75 0C0.783502 0 0 0.783502 0 1.75V1.75C0 2.7165 0.783502 3.5 1.75 3.5H2.25C3.2165 3.5 4 2.7165 4 1.75V1.75C4 0.783502 3.2165 0 2.25 0H1.75ZM0 19.25C0 20.2165 0.783502 21 1.75 21H2.25C3.2165 21 4 20.2165 4 19.25V19.25C4 18.2835 3.2165 17.5 2.25 17.5H1.75C0.783502 17.5 0 18.2835 0 19.25V19.25ZM0 10.5C0 11.4665 0.783502 12.25 1.75 12.25H2.25C3.2165 12.25 4 11.4665 4 10.5V10.5C4 9.5335 3.2165 8.75 2.25 8.75H1.75C0.783502 8.75 0 9.5335 0 10.5V10.5Z" fill="black"/>
</svg>
