<svg width="27" height="24" viewBox="0 0 27 24" fill="none" xmlns="http://www.w3.org/2000/svg">
<path fill-rule="evenodd" clip-rule="evenodd" d="M6.24187 4.03C5.51373 4.03 4.92188 4.61657 4.92188 5.35V7.17C4.92188 7.58421 4.58609 7.92 4.17188 7.92C3.75766 7.92 3.42188 7.58421 3.42188 7.17V5.35C3.42188 3.78343 4.69002 2.53 6.24187 2.53H20.7619C22.3284 2.53 23.5819 3.79815 23.5819 5.35V7.17C23.5819 7.58421 23.2461 7.92 22.8319 7.92C22.4177 7.92 22.0819 7.58421 22.0819 7.17V5.35C22.0819 4.62185 21.4953 4.03 20.7619 4.03H6.24187Z" fill="#292D32"/>
<path fill-rule="evenodd" clip-rule="evenodd" d="M13.5 3.36C13.9142 3.36 14.25 3.69579 14.25 4.11V20.72C14.25 21.1342 13.9142 21.47 13.5 21.47C13.0858 21.47 12.75 21.1342 12.75 20.72V4.11C12.75 3.69579 13.0858 3.36 13.5 3.36Z" fill="#292D32"/>
<path fill-rule="evenodd" clip-rule="evenodd" d="M8.80859 20.72C8.80859 20.3058 9.14438 19.97 9.55859 19.97H17.4386C17.8528 19.97 18.1886 20.3058 18.1886 20.72C18.1886 21.1342 17.8528 21.47 17.4386 21.47H9.55859C9.14438 21.47 8.80859 21.1342 8.80859 20.72Z" fill="#292D32"/>
<path fill-rule="evenodd" clip-rule="evenodd" d="M0.75 12C0.75 11.5858 1.08579 11.25 1.5 11.25L25.5 11.25C25.9142 11.25 26.25 11.5858 26.25 12C26.25 12.4142 25.9142 12.75 25.5 12.75L1.5 12.75C1.08579 12.75 0.75 12.4142 0.75 12Z" fill="#292D32"/>
</svg>
