<svg width="14" height="26" viewBox="0 0 14 26" fill="none" xmlns="http://www.w3.org/2000/svg">
<path fill-rule="evenodd" clip-rule="evenodd" d="M0 12.9613C0 12.6852 0.223858 12.4613 0.5 12.4613H13.1649C13.4411 12.4613 13.6649 12.6852 13.6649 12.9613C13.6649 13.2374 13.4411 13.4613 13.1649 13.4613H0.5C0.223858 13.4613 0 13.2374 0 12.9613Z" fill="#292D32"/>
<path fill-rule="evenodd" clip-rule="evenodd" d="M6.70703 16.0567C6.98317 16.0567 7.20703 16.2806 7.20703 16.5567V25C7.20703 25.2761 6.98317 25.5 6.70703 25.5C6.43089 25.5 6.20703 25.2761 6.20703 25V16.5567C6.20703 16.2806 6.43089 16.0567 6.70703 16.0567Z" fill="#292D32"/>
<path fill-rule="evenodd" clip-rule="evenodd" d="M6.3564 15.4222C6.55166 15.2269 6.86825 15.2269 7.06351 15.4222L9.05471 17.4134C9.24998 17.6086 9.24998 17.9252 9.05471 18.1205C8.85945 18.3157 8.54287 18.3157 8.34761 18.1205L6.70996 16.4828L5.0723 18.1205C4.87704 18.3157 4.56046 18.3157 4.3652 18.1205C4.16993 17.9252 4.16993 17.6086 4.3652 17.4134L6.3564 15.4222Z" fill="#292D32"/>
<path fill-rule="evenodd" clip-rule="evenodd" d="M6.70703 0.5C6.98317 0.5 7.20703 0.723858 7.20703 1V9.44328C7.20703 9.71942 6.98317 9.94328 6.70703 9.94328C6.43089 9.94328 6.20703 9.71942 6.20703 9.44328V1C6.20703 0.723858 6.43089 0.5 6.70703 0.5Z" fill="#292D32"/>
<path fill-rule="evenodd" clip-rule="evenodd" d="M4.3652 7.60513C4.56046 7.40986 4.87704 7.40986 5.0723 7.60513L6.70996 9.24278L8.34761 7.60513C8.54287 7.40986 8.85945 7.40986 9.05471 7.60513C9.24998 7.80039 9.24998 8.11697 9.05471 8.31223L7.06351 10.3034C6.86825 10.4987 6.55166 10.4987 6.3564 10.3034L4.3652 8.31223C4.16993 8.11697 4.16993 7.80039 4.3652 7.60513Z" fill="#292D32"/>
</svg>
