<svg width="24" height="24" viewBox="0 0 24 24" fill="none" xmlns="http://www.w3.org/2000/svg">
<path fill-rule="evenodd" clip-rule="evenodd" d="M8.87109 3C8.87109 2.58579 9.20688 2.25 9.62109 2.25H18.8711C19.2853 2.25 19.6211 2.58579 19.6211 3C19.6211 3.41421 19.2853 3.75 18.8711 3.75H9.62109C9.20688 3.75 8.87109 3.41421 8.87109 3Z" fill="#292D32"/>
<path fill-rule="evenodd" clip-rule="evenodd" d="M4.37109 21C4.37109 20.5858 4.70688 20.25 5.12109 20.25H14.3711C14.7853 20.25 15.1211 20.5858 15.1211 21C15.1211 21.4142 14.7853 21.75 14.3711 21.75H5.12109C4.70688 21.75 4.37109 21.4142 4.37109 21Z" fill="#292D32"/>
<path fill-rule="evenodd" clip-rule="evenodd" d="M14.4321 2.2724C14.8339 2.37286 15.0782 2.78006 14.9778 3.1819L10.4778 21.1819C10.3773 21.5837 9.97012 21.8281 9.56828 21.7276C9.16643 21.6271 8.92211 21.2199 9.02257 20.8181L13.5226 2.8181C13.623 2.41625 14.0302 2.17193 14.4321 2.2724Z" fill="#292D32"/>
</svg>
