<svg width="24" height="13" viewBox="0 0 24 13" fill="none" xmlns="http://www.w3.org/2000/svg">
<path d="M5.97236 12.676C4.28222 12.676 2.86023 12.0585 1.70639 10.8234C0.568796 9.58827 0 8.09315 0 6.33801C0 4.58287 0.568796 3.08775 1.70639 1.85265C2.86023 0.617551 4.28222 0 5.97236 0C6.86618 0 7.695 0.203142 8.45881 0.609425C9.23887 0.999456 9.84017 1.50325 10.2627 2.1208V0.243771H12.3591V12.4323H10.2627V10.5552C9.84017 11.1728 9.23887 11.6847 8.45881 12.091C7.695 12.481 6.86618 12.676 5.97236 12.676ZM6.28926 10.7502C7.49185 10.7502 8.48318 10.3277 9.26325 9.48264C10.0433 8.63757 10.4333 7.58936 10.4333 6.33801C10.4333 5.08666 10.0433 4.03845 9.26325 3.19338C8.48318 2.34832 7.49185 1.92578 6.28926 1.92578C5.07041 1.92578 4.07095 2.34832 3.29089 3.19338C2.51083 4.03845 2.1208 5.08666 2.1208 6.33801C2.1208 7.58936 2.51083 8.63757 3.29089 9.48264C4.07095 10.3277 5.07041 10.7502 6.28926 10.7502Z" fill="black"/>
<path d="M19.7394 12.5948C18.6126 12.5948 17.6646 12.1831 16.8954 11.3597C16.137 10.5363 15.7578 9.53952 15.7578 8.36942C15.7578 7.19933 16.137 6.20258 16.8954 5.37918C17.6646 4.55578 18.6126 4.14408 19.7394 4.14408C20.3353 4.14408 20.8878 4.27951 21.397 4.55036C21.9171 4.81039 22.3179 5.14625 22.5996 5.55795V4.3066H23.9972V12.4322H22.5996V11.1809C22.3179 11.5926 21.9171 11.9339 21.397 12.2047C20.8878 12.4648 20.3353 12.5948 19.7394 12.5948ZM19.9507 11.3109C20.7524 11.3109 21.4133 11.0292 21.9333 10.4658C22.4534 9.90246 22.7134 9.20366 22.7134 8.36942C22.7134 7.53519 22.4534 6.83638 21.9333 6.273C21.4133 5.70962 20.7524 5.42794 19.9507 5.42794C19.1381 5.42794 18.4718 5.70962 17.9517 6.273C17.4317 6.83638 17.1717 7.53519 17.1717 8.36942C17.1717 9.20366 17.4317 9.90246 17.9517 10.4658C18.4718 11.0292 19.1381 11.3109 19.9507 11.3109Z" fill="black"/>
</svg>
