<svg width="25" height="24" viewBox="0 0 25 24" fill="none" xmlns="http://www.w3.org/2000/svg">
<path d="M17.3711 19.06H9.37109C6.20109 19.06 3.62109 16.48 3.62109 13.31C3.62109 10.14 6.20109 7.56 9.37109 7.56H20.3711C20.7811 7.56 21.1211 7.9 21.1211 8.31C21.1211 8.72 20.7811 9.06 20.3711 9.06H9.37109C7.03109 9.06 5.12109 10.97 5.12109 13.31C5.12109 15.65 7.03109 17.56 9.37109 17.56H17.3711C17.7811 17.56 18.1211 17.9 18.1211 18.31C18.1211 18.72 17.7911 19.06 17.3711 19.06Z" fill="#292D32"/>
<path d="M18.0717 11.56C17.8817 11.56 17.6917 11.49 17.5417 11.34C17.2517 11.05 17.2517 10.57 17.5417 10.28L19.5717 8.25L17.5417 6.22C17.2517 5.93 17.2517 5.45 17.5417 5.16C17.8317 4.87 18.3117 4.87 18.6017 5.16L21.1617 7.72C21.4517 8.01 21.4517 8.49 21.1617 8.78L18.6017 11.34C18.4517 11.49 18.2617 11.56 18.0717 11.56Z" fill="#292D32"/>
</svg>
