<svg width="24" height="24" viewBox="0 0 24 24" fill="none" xmlns="http://www.w3.org/2000/svg">
<path fill-rule="evenodd" clip-rule="evenodd" d="M2.25 5C2.25 4.58579 2.58579 4.25 3 4.25H21C21.4142 4.25 21.75 4.58579 21.75 5C21.75 5.41421 21.4142 5.75 21 5.75H3C2.58579 5.75 2.25 5.41421 2.25 5Z" fill="#292D32"/>
<path fill-rule="evenodd" clip-rule="evenodd" d="M2.25 9.5C2.25 9.08579 2.58579 8.75 3 8.75H12C12.4142 8.75 12.75 9.08579 12.75 9.5C12.75 9.91421 12.4142 10.25 12 10.25H3C2.58579 10.25 2.25 9.91421 2.25 9.5Z" fill="#292D32"/>
<path fill-rule="evenodd" clip-rule="evenodd" d="M2.25 15C2.25 14.5858 2.58579 14.25 3 14.25H12C12.4142 14.25 12.75 14.5858 12.75 15C12.75 15.4142 12.4142 15.75 12 15.75H3C2.58579 15.75 2.25 15.4142 2.25 15Z" fill="#292D32"/>
<path fill-rule="evenodd" clip-rule="evenodd" d="M2.25 19.5C2.25 19.0858 2.58579 18.75 3 18.75H21C21.4142 18.75 21.75 19.0858 21.75 19.5C21.75 19.9142 21.4142 20.25 21 20.25H3C2.58579 20.25 2.25 19.9142 2.25 19.5Z" fill="#292D32"/>
</svg>
