<svg width="20" height="17" viewBox="0 0 20 17" fill="none" xmlns="http://www.w3.org/2000/svg">
<path fill-rule="evenodd" clip-rule="evenodd" d="M0.25 1C0.25 0.585786 0.585786 0.25 1 0.25H19C19.4142 0.25 19.75 0.585786 19.75 1C19.75 1.41421 19.4142 1.75 19 1.75H1C0.585786 1.75 0.25 1.41421 0.25 1Z" fill="#292D32"/>
<path fill-rule="evenodd" clip-rule="evenodd" d="M9.25 5.5C9.25 5.08579 9.58579 4.75 10 4.75H19C19.4142 4.75 19.75 5.08579 19.75 5.5C19.75 5.91421 19.4142 6.25 19 6.25H10C9.58579 6.25 9.25 5.91421 9.25 5.5Z" fill="#292D32"/>
<path fill-rule="evenodd" clip-rule="evenodd" d="M9.25 11C9.25 10.5858 9.58579 10.25 10 10.25H19C19.4142 10.25 19.75 10.5858 19.75 11C19.75 11.4142 19.4142 11.75 19 11.75H10C9.58579 11.75 9.25 11.4142 9.25 11Z" fill="#292D32"/>
<path fill-rule="evenodd" clip-rule="evenodd" d="M0.25 15.5C0.25 15.0858 0.585786 14.75 1 14.75H19C19.4142 14.75 19.75 15.0858 19.75 15.5C19.75 15.9142 19.4142 16.25 19 16.25H1C0.585786 16.25 0.25 15.9142 0.25 15.5Z" fill="#292D32"/>
</svg>
