<svg width="24" height="24" viewBox="0 0 24 24" fill="none" xmlns="http://www.w3.org/2000/svg">
<path fill-rule="evenodd" clip-rule="evenodd" d="M2.25 4.5C2.25 4.08579 2.58579 3.75 3 3.75H21C21.4142 3.75 21.75 4.08579 21.75 4.5C21.75 4.91421 21.4142 5.25 21 5.25H3C2.58579 5.25 2.25 4.91421 2.25 4.5Z" fill="#292D32"/>
<path fill-rule="evenodd" clip-rule="evenodd" d="M6.51172 9.5C6.51172 9.08579 6.84751 8.75 7.26172 8.75H16.7417C17.1559 8.75 17.4917 9.08579 17.4917 9.5C17.4917 9.91421 17.1559 10.25 16.7417 10.25H7.26172C6.84751 10.25 6.51172 9.91421 6.51172 9.5Z" fill="#292D32"/>
<path fill-rule="evenodd" clip-rule="evenodd" d="M2.25 14.5C2.25 14.0858 2.58579 13.75 3 13.75H21C21.4142 13.75 21.75 14.0858 21.75 14.5C21.75 14.9142 21.4142 15.25 21 15.25H3C2.58579 15.25 2.25 14.9142 2.25 14.5Z" fill="#292D32"/>
<path fill-rule="evenodd" clip-rule="evenodd" d="M6.51172 19.5C6.51172 19.0858 6.84751 18.75 7.26172 18.75H16.7417C17.1559 18.75 17.4917 19.0858 17.4917 19.5C17.4917 19.9142 17.1559 20.25 16.7417 20.25H7.26172C6.84751 20.25 6.51172 19.9142 6.51172 19.5Z" fill="#292D32"/>
</svg>
