<svg width="24" height="24" viewBox="0 0 24 24" fill="none" xmlns="http://www.w3.org/2000/svg">
<path fill-rule="evenodd" clip-rule="evenodd" d="M6.87891 3.25C6.19312 3.25 5.62891 3.81421 5.62891 4.5V11.25H11.9989C14.2047 11.25 15.9989 9.45579 15.9989 7.25C15.9989 5.04421 14.2047 3.25 11.9989 3.25H6.87891ZM4.12891 4.5C4.12891 2.98579 5.36469 1.75 6.87891 1.75H11.9989C15.0331 1.75 17.4989 4.21579 17.4989 7.25C17.4989 10.2842 15.0331 12.75 11.9989 12.75H4.87891C4.46469 12.75 4.12891 12.4142 4.12891 12V4.5Z" fill="#292D32"/>
<path fill-rule="evenodd" clip-rule="evenodd" d="M4.12891 12C4.12891 11.5858 4.46469 11.25 4.87891 11.25H14.3789C17.4131 11.25 19.8789 13.7158 19.8789 16.75C19.8789 19.7842 17.4131 22.25 14.3789 22.25H6.87891C5.36469 22.25 4.12891 21.0142 4.12891 19.5V12ZM5.62891 12.75V19.5C5.62891 20.1858 6.19312 20.75 6.87891 20.75H14.3789C16.5847 20.75 18.3789 18.9558 18.3789 16.75C18.3789 14.5442 16.5847 12.75 14.3789 12.75H5.62891Z" fill="#292D32"/>
</svg>
