<svg width="25" height="24" viewBox="0 0 25 24" fill="none" xmlns="http://www.w3.org/2000/svg">
<path d="M15.6289 19.06H7.62891C7.21891 19.06 6.87891 18.72 6.87891 18.31C6.87891 17.9 7.21891 17.56 7.62891 17.56H15.6289C17.9689 17.56 19.8789 15.65 19.8789 13.31C19.8789 10.97 17.9689 9.06 15.6289 9.06H4.62891C4.21891 9.06 3.87891 8.72 3.87891 8.31C3.87891 7.9 4.21891 7.56 4.62891 7.56H15.6289C18.7989 7.56 21.3789 10.14 21.3789 13.31C21.3789 16.48 18.7989 19.06 15.6289 19.06Z" fill="#292D32"/>
<path d="M6.92859 11.56C6.73859 11.56 6.54859 11.49 6.39859 11.34L3.83859 8.78C3.54859 8.49 3.54859 8.01 3.83859 7.72L6.39859 5.16C6.68859 4.87 7.16859 4.87 7.45859 5.16C7.74859 5.45 7.74859 5.93 7.45859 6.22L5.42859 8.25L7.45859 10.28C7.74859 10.57 7.74859 11.05 7.45859 11.34C7.31859 11.49 7.11859 11.56 6.92859 11.56Z" fill="#292D32"/>
</svg>
