<svg width="37" height="37" viewBox="0 0 37 37" fill="none" xmlns="http://www.w3.org/2000/svg">
<path opacity="0.4" d="M31.6042 15.7096H27.1487C23.495 15.7096 20.5196 12.7342 20.5196 9.08042V4.625C20.5196 3.77708 19.8258 3.08333 18.9779 3.08333H12.4412C7.69292 3.08333 3.85417 6.16667 3.85417 11.6704V25.3296C3.85417 30.8333 7.69292 33.9167 12.4412 33.9167H24.5587C29.3071 33.9167 33.1458 30.8333 33.1458 25.3296V17.2513C33.1458 16.4033 32.4521 15.7096 31.6042 15.7096Z" fill="#19B7A2"/>
<path d="M24.3583 3.40708C23.7263 2.775 22.6317 3.20667 22.6317 4.08542V9.46583C22.6317 11.7167 24.5433 13.5821 26.8713 13.5821C28.3358 13.5975 30.3708 13.5975 32.1129 13.5975C32.9917 13.5975 33.4542 12.5646 32.8375 11.9479C30.6175 9.7125 26.64 5.68875 24.3583 3.40708Z" fill="#19B7A2"/>
<path d="M17.7754 19.2246L14.6921 16.1412C14.6767 16.1258 14.6613 16.1258 14.6613 16.1104C14.5688 16.0179 14.4454 15.9408 14.3221 15.8792C14.3067 15.8792 14.3067 15.8792 14.2913 15.8792C14.1679 15.8329 14.0446 15.8175 13.9213 15.8021C13.875 15.8021 13.8442 15.8021 13.7979 15.8021C13.7054 15.8021 13.5975 15.8329 13.505 15.8637C13.4588 15.8792 13.4279 15.8946 13.3971 15.91C13.2738 15.9717 13.1504 16.0333 13.0579 16.1412L9.97458 19.2246C9.5275 19.6717 9.5275 20.4117 9.97458 20.8587C10.4217 21.3058 11.1617 21.3058 11.6088 20.8587L12.7188 19.7487V26.2083C12.7188 26.8404 13.2429 27.3646 13.875 27.3646C14.5071 27.3646 15.0313 26.8404 15.0313 26.2083V19.7487L16.1413 20.8587C16.3725 21.09 16.6654 21.1979 16.9583 21.1979C17.2513 21.1979 17.5442 21.09 17.7754 20.8587C18.2225 20.4117 18.2225 19.6717 17.7754 19.2246Z" fill="#19B7A2"/>
</svg>
