<svg width="36" height="36" viewBox="0 0 36 36" fill="none" xmlns="http://www.w3.org/2000/svg">
<path opacity="0.4" d="M35.9999 10.458V21.4199L33.0659 18.8999C31.6619 17.694 29.3939 17.694 27.9899 18.8999L20.5019 25.3259C19.0979 26.5319 16.83 26.5319 15.426 25.3259L14.814 24.8219C13.536 23.7059 11.502 23.5979 10.062 24.5699L1.206 30.5099L1.008 30.6539C0.341999 29.2139 0 27.5039 0 25.5419V10.458C0 3.90599 3.90599 0 10.458 0H25.5419C32.0939 0 35.9999 3.90599 35.9999 10.458Z" fill="#292D32"/>
<path d="M12.6004 15.0841C14.9664 15.0841 16.8844 13.1661 16.8844 10.8001C16.8844 8.43412 14.9664 6.51611 12.6004 6.51611C10.2344 6.51611 8.31641 8.43412 8.31641 10.8001C8.31641 13.1661 10.2344 15.0841 12.6004 15.0841Z" fill="#292D32"/>
<path d="M35.9997 21.4199V25.5418C35.9997 32.0938 32.0937 35.9998 25.5417 35.9998H10.4578C5.8678 35.9998 2.55581 34.0738 1.00781 30.6538L1.20581 30.5098L10.0618 24.5698C11.5018 23.5978 13.5358 23.7058 14.8138 24.8218L15.4258 25.3258C16.8298 26.5318 19.0978 26.5318 20.5018 25.3258L27.9897 18.8999C29.3937 17.6939 31.6617 17.6939 33.0657 18.8999L35.9997 21.4199Z" fill="#292D32"/>
</svg>
