<svg width="20" height="20" viewBox="0 0 20 20" fill="none" xmlns="http://www.w3.org/2000/svg">
<path d="M14.166 17.0834H5.83268C3.33268 17.0834 1.66602 15.8334 1.66602 12.9167V7.08335C1.66602 4.16669 3.33268 2.91669 5.83268 2.91669H14.166C16.666 2.91669 18.3327 4.16669 18.3327 7.08335V12.9167C18.3327 15.8334 16.666 17.0834 14.166 17.0834Z" fill="#71CCFF"/>
<path d="M10.001 10.725C9.30095 10.725 8.59262 10.5083 8.05096 10.0666L5.44262 7.98331C5.17595 7.76664 5.12596 7.37497 5.34262 7.10831C5.55929 6.84164 5.95096 6.79164 6.21763 7.00831L8.82595 9.09164C9.45928 9.59998 10.5343 9.59998 11.1676 9.09164L13.776 7.00831C14.0426 6.79164 14.4426 6.83331 14.651 7.10831C14.8676 7.37497 14.826 7.77498 14.551 7.98331L11.9426 10.0666C11.4093 10.5083 10.701 10.725 10.001 10.725Z" fill="white"/>
</svg>
