<svg width="38" height="38" viewBox="0 0 38 38" fill="none" xmlns="http://www.w3.org/2000/svg">
<path d="M7.89124 0.595016C7.19017 0.595016 6.62195 1.16324 6.62195 1.86431V36.1357C6.62195 36.8368 7.19017 37.405 7.89124 37.405H35.8161C36.5172 37.405 37.0854 36.8368 37.0854 36.1357V6.30689L31.3735 0.595016H7.89124V0.595016Z" fill="#ECEDEF"/>
<path d="M32.6427 6.30689H37.0853L31.3734 0.595016V5.0376C31.3734 5.73852 31.9417 6.30689 32.6427 6.30689Z" fill="#D9DCDF"/>
<path d="M29.4695 14.5574H6.62195V3.13359H29.4695C29.82 3.13359 30.1042 3.41777 30.1042 3.76824V13.9227C30.1042 14.2732 29.82 14.5574 29.4695 14.5574Z" fill="#C6CACF"/>
<path d="M28.8349 13.2881H0.910004L5.98723 8.21082L0.910004 3.13359H28.8349V13.2881Z" fill="#FFC44F"/>
<path d="M28.8349 32.9624H26.2962C25.9458 32.9624 25.6616 32.6782 25.6616 32.3278V26.6159L27.5655 24.7119L29.4695 26.6159V32.3278C29.4695 32.6782 29.1853 32.9624 28.8349 32.9624Z" fill="#FFC44F"/>
<path d="M37.0854 31.6535C37.414 31.6535 37.6804 31.3871 37.6804 31.0585V6.30689C37.6804 6.15103 37.6164 5.99643 37.5062 5.88621L31.7944 0.17434C31.684 0.0640508 31.5294 0 31.3735 0H7.89124C6.86324 0 6.02694 0.836297 6.02694 1.8643V2.53865H0.910001C0.391435 2.53865 0.122169 3.18718 0.489255 3.55434L5.14581 8.21089L0.489255 12.8674C0.122169 13.2345 0.391361 13.8831 0.910001 13.8831H6.02694V36.1357C6.02694 37.1637 6.86324 38 7.89124 38H35.8161C36.8441 38 37.6804 37.1637 37.6804 36.1357V33.597C37.6804 33.2685 37.4141 33.002 37.0854 33.002C36.7567 33.002 36.4904 33.2684 36.4904 33.597V36.1357C36.4904 36.5075 36.1879 36.8101 35.816 36.8101H7.89124C7.5194 36.8101 7.21689 36.5075 7.21689 36.1357V13.8831H11.0645C11.3931 13.8831 11.6595 13.6167 11.6595 13.2881C11.6595 12.9594 11.3932 12.693 11.0645 12.693H2.34643L6.40798 8.63149C6.64036 8.39911 6.64036 8.02238 6.40798 7.79007L2.34643 3.7286H28.2399V12.6931H13.6031C13.2745 12.6931 13.0081 12.9595 13.0081 13.2881C13.0081 13.6168 13.2744 13.8831 13.6031 13.8831H28.8349C29.1635 13.8831 29.4299 13.6168 29.4299 13.2881V3.13359C29.4299 2.80502 29.1636 2.53858 28.8349 2.53858H7.21689V1.86423C7.21689 1.49239 7.5194 1.18987 7.89124 1.18987H30.7785V5.03745C30.7785 6.06545 31.6148 6.90175 32.6428 6.90175H36.4904V31.0583C36.4904 31.3871 36.7567 31.6535 37.0854 31.6535ZM32.6428 5.71187C32.271 5.71187 31.9685 5.40936 31.9685 5.03752V2.03137L35.6489 5.71187H32.6428V5.71187Z" fill="black"/>
<path d="M11.1603 10.3672C11.2582 10.5762 11.4683 10.7098 11.6992 10.7098H14.8725C15.2011 10.7098 15.4675 10.4435 15.4675 10.1148C15.4675 9.78626 15.2012 9.51981 14.8725 9.51981H12.9695L15.3296 6.68777C15.6464 6.30762 15.3662 5.71194 14.8725 5.71194H11.6992C11.3705 5.71194 11.1042 5.97832 11.1042 6.30696C11.1042 6.63552 11.3705 6.90197 11.6992 6.90197H13.6021L11.2421 9.73401C11.0942 9.91124 11.0624 10.1582 11.1603 10.3672Z" fill="black"/>
<path d="M17.3714 10.1148V6.30688C17.3714 5.97831 17.1051 5.71187 16.7764 5.71187C16.4478 5.71187 16.1814 5.97824 16.1814 6.30688V10.1148C16.1814 10.4434 16.4477 10.7098 16.7764 10.7098C17.105 10.7098 17.3714 10.4434 17.3714 10.1148Z" fill="black"/>
<path d="M19.2754 10.1148V8.80449C19.2884 8.80538 19.3017 8.80583 19.315 8.80583H21.2189C21.5476 8.80583 21.8139 8.53945 21.8139 8.21081V6.30688C21.8139 5.97831 21.5476 5.71187 21.2189 5.71187H18.6803C18.3516 5.71187 18.0853 5.97824 18.0853 6.30688V10.1148C18.0853 10.4434 18.3516 10.7098 18.6803 10.7098C19.0091 10.7098 19.2754 10.4434 19.2754 10.1148ZM19.2754 6.90189H20.624V7.61588H19.315C19.3016 7.61588 19.2884 7.61625 19.2754 7.61721V6.90189Z" fill="black"/>
<path d="M27.5655 29.1942C27.2369 29.1942 26.9705 29.4605 26.9705 29.7892V31.0585C26.9705 31.387 27.2368 31.6535 27.5655 31.6535C27.8942 31.6535 28.1605 31.3871 28.1605 31.0585V29.7892C28.1605 29.4605 27.8941 29.1942 27.5655 29.1942Z" fill="black"/>
<path d="M26.9706 27.2505V27.8852C26.9706 28.2137 27.2369 28.4802 27.5656 28.4802C27.8943 28.4802 28.1606 28.2138 28.1606 27.8852V27.2505C28.1606 26.922 27.8943 26.6555 27.5656 26.6555C27.2369 26.6555 26.9706 26.922 26.9706 27.2505Z" fill="black"/>
<path d="M31.8306 17.3498C31.6202 17.0973 31.245 17.0633 30.9926 17.2737L27.35 20.309H26.2565V19C26.2565 18.6714 25.9902 18.405 25.6615 18.405C25.3329 18.405 25.0665 18.6714 25.0665 19V20.309H22.4486V19C22.4486 18.6714 22.1823 18.405 21.8536 18.405C21.5249 18.405 21.2585 18.6714 21.2585 19V20.309H18.6406V19C18.6406 18.6714 18.3743 18.405 18.0456 18.405C17.717 18.405 17.4506 18.6714 17.4506 19V20.309H14.8327V19C14.8327 18.6714 14.5664 18.405 14.2377 18.405C13.909 18.405 13.6427 18.6714 13.6427 19V20.309H12.3337C12.005 20.309 11.7386 20.5754 11.7386 20.904C11.7386 21.2326 12.0049 21.499 12.3337 21.499H15.5466V22.808C15.5466 23.1366 15.8129 23.403 16.1416 23.403C16.4702 23.403 16.7366 23.1367 16.7366 22.808V21.499H19.3545V22.8079C19.3545 23.1365 19.6208 23.403 19.9495 23.403C20.2783 23.403 20.5446 23.1366 20.5446 22.8079V21.499H23.1625V22.8079C23.1625 23.1365 23.4288 23.403 23.7575 23.403C24.0861 23.403 24.3525 23.1366 24.3525 22.8079V21.499H26.9704V24.4654L25.2407 26.1951C25.1291 26.3067 25.0665 26.458 25.0665 26.6158V32.3277C25.0665 33.0058 25.6181 33.5573 26.2961 33.5573H28.8348C29.5128 33.5573 30.0644 33.0058 30.0644 32.3277V26.6158C30.0644 26.458 30.0018 26.3067 29.8903 26.1951L28.1605 24.4654V22.1743L30.9925 24.5343C31.2619 24.7587 31.6785 24.6963 31.871 24.4035C32.035 24.1541 31.9835 23.8111 31.7544 23.62L28.495 20.9039L31.7545 18.1877C32.0067 17.9774 32.0409 17.6022 31.8306 17.3498ZM28.8745 32.3278C28.8745 32.3497 28.8566 32.3674 28.8349 32.3674H26.2962C26.2744 32.3674 26.2566 32.3497 26.2566 32.3278V26.8623L27.5656 25.5533L28.8746 26.8623V32.3278H28.8745Z" fill="black"/>
</svg>
