<?xml version="1.0" standalone="no"?>
<!DOCTYPE svg PUBLIC "-//W3C//DTD SVG 20010904//EN"
 "http://www.w3.org/TR/2001/REC-SVG-20010904/DTD/svg10.dtd">
<svg version="1.0" xmlns="http://www.w3.org/2000/svg"
 width="40.000000pt" height="40.000000pt" viewBox="0 0 40.000000 40.000000"
 preserveAspectRatio="xMidYMid meet">

<g transform="translate(0.000000,40.000000) scale(0.100000,-0.100000)"
fill="#000000" stroke="none">
<path d="M4 387 c-2 -7 -3 -96 -2 -197 l3 -185 165 0 165 0 3 28 c2 18 9 27
21 27 31 0 42 25 39 87 -3 55 -4 58 -30 61 -26 3 -28 7 -28 46 0 39 -5 48 -54
95 l-55 51 -111 0 c-81 0 -112 -3 -116 -13z m208 -54 l3 -48 48 -3 c46 -3 47
-4 47 -37 l0 -34 -122 -3 -123 -3 -3 -58 c-4 -84 0 -87 134 -87 107 0 114 -1
114 -20 0 -19 -7 -20 -140 -20 l-140 0 0 180 0 180 89 0 90 0 3 -47z m68 -31
c-36 -6 -50 5 -50 40 l0 32 36 -35 c33 -32 34 -34 14 -37z m-80 -130 c0 -5 -9
-17 -20 -27 -11 -10 -20 -22 -20 -28 0 -5 9 -7 20 -4 11 3 20 1 20 -4 0 -5
-18 -9 -40 -9 -46 0 -48 5 -18 37 l21 23 -21 0 c-12 0 -22 5 -22 10 0 6 18 10
40 10 22 0 40 -4 40 -8z m50 -32 c0 -29 -4 -40 -15 -40 -11 0 -15 11 -15 40 0
29 4 40 15 40 11 0 15 -11 15 -40z m93 28 c7 -21 -4 -38 -24 -38 -10 0 -19 -7
-19 -15 0 -8 -7 -15 -15 -15 -11 0 -15 11 -15 40 0 39 1 40 34 40 19 0 36 -6
39 -12z"/>
<path d="M300 149 c0 -5 5 -7 10 -4 6 3 10 8 10 11 0 2 -4 4 -10 4 -5 0 -10
-5 -10 -11z"/>
</g>
</svg>
